PathFileType	4	(X/Y/Z)	E:\Qualisys_Data\Carbon_Farble_Plate\Data\Amateur_Runner\S1\T2\S1T2V23_c3d.trc
DataRate	CameraRate	NumFrames	NumMarkers	Units	OrigDataRate	OrigDataStartFrame	OrigNumFrames
200.000000	200.000000	4	39	mm	200.000000	150	300
Frame#	Time	LSHO			RSHO			LICST			RICST			LASIS			LHEEL			RASIS			LTROC			RTROC			SACR			LTH1			LSK4			LTH2			LTH3			RHM5			LSK2			LTH4			RTH1			LTOE			RTH2			RTH3			RTH4			LLEP			RLEP			LSK1			LSK3			RSK1			LHM5			RSK2			LFT1			RSK3			RSK4			LLME			RLME			RTOE			RHEEL			RFT1			RFT2			LFT2			
		X1	Y1	Z1	X2	Y2	Z2	X3	Y3	Z3	X4	Y4	Z4	X5	Y5	Z5	X6	Y6	Z6	X7	Y7	Z7	X8	Y8	Z8	X9	Y9	Z9	X10	Y10	Z10	X11	Y11	Z11	X12	Y12	Z12	X13	Y13	Z13	X14	Y14	Z14	X15	Y15	Z15	X16	Y16	Z16	X17	Y17	Z17	X18	Y18	Z18	X19	Y19	Z19	X20	Y20	Z20	X21	Y21	Z21	X22	Y22	Z22	X23	Y23	Z23	X24	Y24	Z24	X25	Y25	Z25	X26	Y26	Z26	X27	Y27	Z27	X28	Y28	Z28	X29	Y29	Z29	X30	Y30	Z30	X31	Y31	Z31	X32	Y32	Z32	X33	Y33	Z33	X34	Y34	Z34	X35	Y35	Z35	X36	Y36	Z36	X37	Y37	Z37	X38	Y38	Z38	X39	Y39	Z39	

151	0.75	-4.580489158630371	1529.359497070312	-525.9977416992188	-92.91246795654295	1505.184936523438	-215.8167724609375	-62.75857543945312	1045.477172851562	-535.2177124023438	-76.61477661132812	1069.476928710938	-237.9012603759766	-21.72593116760254	1004.751037597656	-507.7251586914062	-642.3487548828125	450.0364685058594	-421.5989074707031	-36.92776107788086	1023.306579589844	-245.0007171630859	-144.6493377685547	934.1279296875	-554.7938842773438	-135.8588256835938	928.3594970703124	-214.1614074707031	-188.1167602539062	1076.923095703125	-388.7088317871094	-59.1568489074707	755.5728759765625	-512.9232177734375	-504.9725646972656	485.4151916503906	-458.7229614257812	-134.1803741455078	767.8246459960938	-546.8400268554688	-86.11032104492188	655.0973510742188	-497.1651611328125	316.1624450683594	157.0445404052734	-221.8009643554688	-413.4872436523438	510.6286926269531	-499.4274597167969	-164.6303100585938	673.7747192382812	-524.5762939453125	23.33376884460449	828.6622314453125	-232.3099060058594	-603.9573364257812	198.4485321044922	-398.6092224121094	-46.53721618652344	803.345703125	-199.4479675292969	58.2587890625	733.2254028320312	-233.1497497558594	-16.28459358215332	707.3421630859375	-208.8665771484375	-194.4614562988281	523.010009765625	-489.8455810546875	85.46321868896484	574.4754028320312	-253.8945465087891	-389.8362731933594	429.4641418457031	-484.4417114257812	-488.7654418945312	408.8300170898438	-477.9187316894531	134.1992950439453	393.54052734375	-227.3846435546875	-656.0147094726562	248.8921508789062	-466.6964111328125	55.92922210693359	372.8311462402344	-236.9752807617188	-663.5250854492188	439.60302734375	-390.8570556640625	161.8915710449219	297.1737670898438	-238.6852264404297	86.01069641113281	277.7296142578125	-257.500732421875	-608.2653198242188	399.3994445800781	-471.6531372070312	172.8398742675781	157.6941375732422	-236.0845031738281	359.7681579589844	204.6059417724609	-296.3715515136719	131.7101593017578	89.37600708007812	-278.6688537597656	158.5635223388672	69.7568130493164	-310.1685485839844	151.2113342285156	65.87921905517578	-254.2428131103516	-674.1953735351562	435.5733337402344	-444.3493347167969
152	0.755	15.7075366973877	1527.045288085938	-524.23095703125	-71.77657318115234	1501.6328125	-214.3603515625	-42.79663467407227	1042.296020507812	-534.591796875	-57.09743881225586	1066.783325195312	-237.5108032226562	-1.871701002120972	1002.047607421875	-507.1162719726562	-616.146484375	457.1051025390625	-421.2655029296875	-17.30898475646973	1020.878540039062	-244.6701202392578	-123.4055786132812	930.1787109375	-554.8717041015625	-116.1084899902344	925.7781982421876	-213.5105285644531	-168.5621032714844	1073.364624023438	-388.3020935058594	-35.73456573486328	753.0018310546875	-512.7827758789062	-477.6978759765625	488.7594299316406	-458.0604553222656	-110.9184494018555	763.5888671875	-546.4599609375	-60.78620529174805	651.6100463867188	-497.1043090820312	330.5149536132812	151.6485900878906	-222.1206512451172	-386.0699157714844	511.8361206054688	-498.8146667480469	-139.2655639648438	669.070068359375	-524.0556640625	42.86791229248047	826.106201171875	-229.751953125	-583.7230224609375	204.762939453125	-398.3596801757812	-27.7371940612793	800.8412475585938	-199.0838775634766	77.84400177001953	730.87744140625	-231.5000610351562	2.665713310241699	704.6808471679688	-209.6208801269531	-166.8269348144531	518.6951904296875	-489.7262268066406	102.7029647827148	571.5764770507812	-253.9182891845703	-364.5302124023438	429.93310546875	-484.2335815429688	-463.765869140625	411.5125732421875	-476.7309265136719	150.7181854248047	388.9687194824219	-228.0709686279297	-633.8165893554688	256.6712341308594	-466.2642822265625	72.50205993652344	368.9626770019531	-237.0849456787109	-637.6637573242188	447.6193237304688	-390.4911193847656	177.7286834716797	293.1378173828125	-239.4591522216797	101.7169494628906	273.6064453125	-257.496337890625	-583.1172485351562	405.342529296875	-470.2773742675781	187.3539733886719	153.2156677246094	-236.8857116699219	374.5483093261719	199.2301483154297	-296.2171325683594	145.9719696044922	84.99462127685547	-279.3143615722656	172.4441833496094	65.5611801147461	-311.4065856933594	165.2227020263672	61.28794479370117	-255.7252807617188	-647.9360961914062	443.5057678222656	-444.2229919433594
153	0.76	35.74328231811523	1524.27294921875	-522.9002685546875	-50.96464920043945	1497.85107421875	-212.8502197265625	-23.15729904174805	1039.3447265625	-534.4605712890625	-37.69379425048828	1063.643310546875	-237.7319488525391	18.47625350952148	998.8889770507812	-506.6417846679688	-589.25732421875	464.3584594726562	-421.2916870117188	2.540798425674438	1018.233154296875	-244.0111846923828	-102.3387680053711	926.001220703125	-555.0429077148438	-96.74498748779295	922.952392578125	-213.6900939941406	-148.9443206787109	1069.829833984375	-388.1858520507812	-12.09914588928223	750.1450805664062	-512.6779174804688	-450.1069030761719	491.87451171875	-457.5013427734375	-87.91600036621094	759.7479858398438	-545.8779296875	-35.37819671630859	648.4991455078125	-497.139892578125	343.6982116699219	145.2044219970703	-222.5551910400391	-357.0472106933594	511.505615234375	-497.0126037597656	-114.5166931152344	664.74755859375	-523.644287109375	62.89602279663086	824.3887939453125	-228.4694519042969	-562.0913696289062	211.0948791503906	-398.23486328125	-8.802752494812012	798.2380981445312	-199.1635131835938	97.86736297607422	728.988037109375	-229.3294830322266	22.09500694274902	702.542724609375	-210.3682861328125	-138.9331665039062	514.0778198242188	-490.0452575683594	120.3055191040039	567.8878173828125	-253.7753295898438	-338.4092712402344	429.9056091308594	-483.6827087402344	-438.1707458496094	414.4562377929688	-476.6949768066406	166.5529479980469	384.4489440917969	-228.9264526367188	-611.1544189453125	263.9979858398438	-466.4970397949219	87.80008697509766	365.090087890625	-236.9126892089844	-610.5390625	455.171875	-390.6524658203125	192.74560546875	288.0421447753906	-240.6436004638672	116.3080902099609	269.5026245117188	-257.6497802734375	-557.0841064453125	411.4066467285156	-470.2555541992188	200.7081909179688	148.2149963378906	-237.3931427001953	387.7389526367188	193.5661773681641	-296.2930908203125	158.3692016601562	80.52818298339844	-280.2390747070312	184.9562377929688	61.09366226196289	-312.3861389160156	177.7140808105469	56.39707946777344	-256.8138732910156	-620.9701538085938	450.9483337402344	-444.4147033691406
154	0.765	55.81952285766602	1521.672973632812	-521.4328002929688	-30.03443145751953	1493.806274414062	-211.2342376708984	-3.639139413833618	1036.046997070312	-534.431884765625	-18.75077819824219	1061.051391601562	-236.9965057373047	38.32806015014648	995.5081176757812	-505.6802978515625	-561.5186157226562	470.6770629882812	-421.0541687011719	21.40641784667969	1015.231262207031	-243.3672027587891	-81.7390365600586	921.4616088867188	-554.9312744140625	-77.56275177001953	920.231201171875	-213.2631988525391	-129.4593048095703	1066.137329101562	-388.7308349609375	11.29578495025635	747.2494506835938	-512.7916259765625	-421.8477478027344	494.3627319335938	-456.9495544433594	-64.71224975585938	755.535888671875	-545.462890625	-8.731429100036621	646.1448974609375	-498.3617248535156	355.6167907714844	138.6102600097656	-223.3899993896484	-328.490478515625	511.8963928222656	-496.4374389648438	-89.41195678710938	659.879638671875	-523.3750610351562	82.84668731689453	822.7316284179688	-226.5220947265625	-540.0709838867188	216.7658538818359	-397.8292846679688	10.73587608337402	795.90185546875	-199.3671722412109	117.7085723876953	726.9036254882812	-227.8250274658203	40.88333511352539	700.3284912109375	-211.2775726318359	-110.8419799804688	509.5763854980469	-490.47607421875	137.9089508056641	563.863525390625	-254.2837371826172	-311.7459716796875	429.7583923339844	-483.7310180664062	-411.8551635742188	416.5556640625	-476.2387084960938	181.2987518310547	379.6740417480469	-229.5119018554688	-587.1461181640625	270.5584106445312	-466.212646484375	102.511360168457	361.2355651855469	-237.2158203125	-583.30029296875	462.1685791015625	-390.3426818847656	206.5463714599609	283.0220947265625	-240.8383026123047	129.859375	265.3216552734375	-258.1492614746094	-531.1163330078125	417.1794738769531	-469.9600830078125	212.5962371826172	142.7040710449219	-238.3533782958984	399.7935180664062	187.2204284667969	-296.6630859375	169.9055480957031	75.19619750976562	-281.3045959472656	196.0184783935547	56.43446350097656	-313.8056640625	188.7067108154297	50.94270706176758	-258.0109252929688	-593.3401489257812	457.8297424316406	-444.3632507324219
